<mxfile host="app.diagrams.net" modified="2023-05-21T16:03:15.051Z" agent="Mozilla/5.0 (Macintosh; Intel Mac OS X 10_15_7) AppleWebKit/537.36 (KHTML, like Gecko) Chrome/113.0.0.0 Safari/537.36" version="21.3.2" etag="JgvyBTB7R7_NLkZnaZOH" type="github">
  <diagram name="Page-1" id="BWnEMjbgls0k7jVrVnhc">
    <mxGraphModel>
      <root>
        <mxCell id="0" />
        <mxCell id="1" parent="0" />
      </root>
    </mxGraphModel>
  </diagram>
</mxfile>
